<?xml version="1.0" standalone="no"?>
<!DOCTYPE svg PUBLIC "-//W3C//DTD SVG 20010904//EN"
 "http://www.w3.org/TR/2001/REC-SVG-20010904/DTD/svg10.dtd">
<svg version="1.0" xmlns="http://www.w3.org/2000/svg"
 width="300.000000pt" height="194.000000pt" viewBox="0 0 300.000000 194.000000"
 preserveAspectRatio="xMidYMid meet">
<metadata>
Created by potrace 1.10, written by Peter Selinger 2001-2011
</metadata>
<g transform="translate(0.000000,194.000000) scale(0.100000,-0.100000)"
fill="#000000" stroke="none">
<path d="M5 970 c0 -536 1 -756 2 -487 2 268 2 706 0 975 -1 268 -2 48 -2
-488z"/>
<path d="M2995 970 c0 -536 1 -756 2 -487 2 268 2 706 0 975 -1 268 -2 48 -2
-488z"/>
<path d="M1200 1739 c0 -25 33 -22 38 4 2 12 -3 17 -17 17 -15 0 -21 -6 -21
-21z"/>
<path d="M1282 1748 c-8 -8 -12 -52 -12 -130 0 -99 3 -125 21 -162 22 -48 88
-120 189 -206 35 -30 74 -66 88 -80 38 -40 81 -121 93 -177 l12 -53 197 0
c139 0 199 3 208 12 18 18 17 332 -2 347 -10 8 -76 11 -225 9 l-211 -3 0 216
c0 154 -3 218 -12 227 -8 8 -61 12 -173 12 -112 0 -165 -4 -173 -12z m218 -17
c0 -3 16 -7 35 -8 19 -2 35 1 35 6 0 5 9 7 19 4 18 -5 20 -16 21 -195 0 -105
3 -195 6 -199 3 -5 0 -9 -7 -9 -7 0 -3 -9 9 -20 12 -11 26 -20 32 -20 5 0 10
-4 10 -10 0 -16 287 -13 293 3 4 10 7 10 18 0 16 -16 49 -17 49 -2 0 8 4 9 13
0 8 -6 17 -8 21 -4 4 4 6 -50 5 -120 0 -71 1 -130 4 -133 3 -3 -1 -17 -8 -31
l-14 -26 -162 2 c-90 1 -166 4 -171 7 -4 3 -8 15 -9 27 0 21 -1 21 -9 2 -7
-17 -9 -15 -9 12 -1 36 -20 83 -33 83 -5 0 -7 4 -4 9 3 4 -3 16 -14 26 -11 10
-20 27 -20 37 0 11 -4 17 -8 14 -4 -2 -33 21 -64 53 -31 31 -61 55 -67 53 -6
-2 -8 3 -5 12 4 10 1 16 -8 16 -8 0 -42 28 -77 62 -50 50 -61 66 -56 85 3 13
1 23 -5 23 -6 0 -8 -5 -4 -12 4 -6 3 -8 -3 -5 -12 7 -18 212 -8 239 5 13 21
16 81 16 41 0 77 2 79 4 7 7 35 6 35 -1z"/>
<path d="M1194 1656 c-9 -24 4 -48 23 -44 12 2 18 12 18 28 0 29 -32 41 -41
16z"/>
<path d="M1182 1528 c-17 -17 -15 -32 9 -54 21 -19 21 -18 40 4 15 19 16 27 6
43 -13 22 -37 25 -55 7z"/>
<path d="M1220 1405 c-17 -20 -9 -48 19 -61 29 -15 48 -9 56 17 15 45 -45 80
-75 44z"/>
<path d="M832 1298 c-17 -17 -17 -329 0 -346 9 -9 73 -12 225 -12 l213 0 0
-213 c0 -152 3 -216 12 -225 17 -17 329 -17 346 0 20 20 15 172 -7 217 -38 73
-139 197 -224 274 -103 94 -141 148 -170 244 l-22 73 -180 0 c-128 0 -185 -4
-193 -12z m344 -36 c7 -4 17 -27 24 -52 7 -25 16 -47 20 -50 13 -8 50 -79 50
-95 0 -14 12 -19 33 -16 4 0 7 -6 7 -14 0 -8 14 -21 30 -30 17 -9 30 -18 30
-21 0 -3 -4 -2 -10 1 -6 3 -7 -1 -4 -10 4 -8 12 -14 19 -13 14 3 105 -85 105
-102 0 -5 7 -10 16 -10 10 0 14 -5 10 -16 -3 -8 -2 -13 3 -9 5 3 19 -8 31 -25
19 -26 19 -30 4 -30 -13 0 -14 -3 -4 -14 6 -8 18 -12 25 -10 10 4 12 -1 8 -18
-3 -13 -2 -20 2 -16 19 18 32 -13 27 -63 -3 -32 -1 -54 7 -58 12 -8 -7 -61
-22 -61 -5 0 -6 -3 -4 -7 3 -5 -55 -8 -129 -8 -74 0 -129 2 -123 4 6 2 2 9 -9
17 -17 12 -18 24 -14 166 4 144 -3 210 -26 246 -12 17 -51 21 -244 22 -114 1
-170 5 -177 13 -5 7 -10 57 -10 112 -1 55 -2 107 -2 115 -1 24 5 44 16 52 6 4
75 8 155 8 80 0 150 -4 156 -8z"/>
<path d="M1290 1280 c-23 -23 -26 -49 -7 -74 16 -21 60 -24 82 -6 21 17 19 63
-3 83 -25 22 -48 21 -72 -3z m50 -52 c-30 -11 -45 1 -23 17 13 10 21 10 31 2
11 -9 10 -12 -8 -19z"/>
<path d="M1392 1157 c-30 -31 -28 -72 4 -104 20 -20 31 -24 57 -19 18 4 40 16
49 29 56 72 -48 161 -110 94z m90 -29 c8 -23 -4 -56 -21 -61 -29 -7 -61 11
-61 35 0 27 10 43 30 50 18 6 47 -7 52 -24z"/>
<path d="M1546 1015 c-19 -19 -21 -66 -4 -83 7 -7 27 -12 45 -12 26 0 36 6 45
26 25 54 -45 110 -86 69z m63 -49 c0 -11 -3 -15 -6 -8 -2 6 -11 12 -19 12 -14
0 -19 21 -7 33 11 11 33 -14 32 -37z"/>
<path d="M1620 865 c-17 -20 -5 -62 20 -70 44 -14 80 41 48 73 -17 17 -53 15
-68 -3z"/>
<path d="M1683 743 c-19 -7 -16 -51 4 -62 25 -13 53 4 53 33 0 29 -25 42 -57
29z"/>
<path d="M1670 576 c0 -29 24 -40 44 -20 20 20 9 44 -20 44 -19 0 -24 -5 -24
-24z"/>
<path d="M1674 485 c-4 -9 -2 -21 4 -27 15 -15 44 -1 40 19 -4 23 -36 29 -44
8z"/>
<path d="M468 275 c-56 -31 -44 -119 17 -131 36 -6 75 9 75 30 0 17 -27 29
-35 16 -10 -16 -34 -11 -44 9 -15 27 11 60 32 42 23 -18 66 4 46 24 -22 22
-62 26 -91 10z"/>
<path d="M621 272 c-9 -16 -51 -124 -51 -129 0 -11 49 0 54 12 3 8 15 15 26
15 11 0 23 -7 26 -15 7 -18 44 -20 44 -2 0 6 -9 32 -20 56 -11 24 -20 49 -20
56 0 12 -21 25 -40 25 -5 0 -14 -8 -19 -18z m39 -62 c0 -11 -7 -20 -15 -20
-15 0 -21 21 -8 33 12 13 23 7 23 -13z"/>
<path d="M739 280 c0 -3 -1 -34 -1 -69 0 -57 2 -65 20 -68 15 -2 22 4 24 20 2
12 10 22 18 23 34 2 40 5 51 25 8 15 8 28 1 44 -9 19 -20 24 -61 26 -28 2 -51
2 -52 -1z m79 -47 c5 -18 -28 -29 -38 -12 -5 7 -6 17 -3 22 7 12 35 5 41 -10z"/>
<path d="M913 272 c-3 -9 -16 -41 -29 -71 -13 -29 -24 -55 -24 -57 0 -10 50 2
54 13 7 18 45 16 52 -2 6 -16 54 -21 54 -6 0 4 -13 37 -29 72 -22 49 -35 65
-51 66 -12 1 -24 -5 -27 -15z m41 -58 c9 -23 8 -24 -14 -24 -11 0 -20 2 -20 4
0 12 13 36 20 36 4 0 11 -7 14 -16z"/>
<path d="M1106 269 c-33 -26 -36 -79 -5 -110 17 -17 29 -20 57 -15 43 6 58 26
35 43 -11 9 -20 9 -28 3 -19 -16 -45 -1 -45 25 0 27 26 40 46 24 11 -9 18 -8
30 2 15 12 14 15 -6 31 -29 23 -51 23 -84 -3z"/>
<path d="M1226 282 c-2 -4 -3 -38 -3 -75 0 -64 1 -68 21 -65 15 2 22 11 24 31
3 23 8 28 25 25 18 -2 21 -9 19 -31 -3 -25 -1 -28 18 -25 21 3 22 9 22 73 0
62 -2 70 -18 70 -13 0 -20 -8 -22 -27 -4 -37 -42 -40 -42 -4 0 22 -34 44 -44
28z"/>
<path d="M1632 283 c-13 -3 -27 -15 -32 -29 -12 -31 -26 -31 -34 1 -5 19 -13
25 -34 25 -27 0 -27 0 -26 -67 2 -62 4 -68 24 -71 21 -3 22 -1 17 32 -6 40 6
47 24 14 l12 -23 10 28 c13 39 29 33 25 -10 -3 -33 0 -38 20 -41 21 -3 22 0
22 72 0 42 -1 75 -2 75 -2 -1 -13 -4 -26 -6z"/>
<path d="M1680 214 c0 -67 2 -74 20 -74 18 0 20 7 20 69 0 60 -2 69 -20 74
-19 5 -20 0 -20 -69z"/>
<path d="M1762 274 c-12 -8 -22 -24 -22 -35 0 -18 8 -23 68 -44 7 -3 11 -9 7
-15 -4 -6 -15 -6 -32 1 -20 7 -30 6 -41 -5 -14 -14 -12 -16 12 -26 59 -22 110
-1 104 43 -2 15 -14 24 -40 30 -46 11 -50 30 -6 25 40 -4 53 26 16 36 -34 9
-41 8 -66 -10z"/>
<path d="M1928 283 c-48 -3 -58 -7 -58 -22 0 -12 7 -18 18 -17 14 1 17 -8 18
-49 1 -43 4 -50 22 -53 20 -3 22 1 22 52 0 49 2 56 20 56 13 0 20 7 20 20 0
11 -1 19 -2 18 -2 -1 -29 -3 -60 -5z"/>
<path d="M2040 283 c-16 -6 -40 -32 -40 -44 0 -16 33 -39 56 -39 13 0 24 -4
24 -8 0 -17 -13 -21 -37 -11 -17 6 -30 6 -39 -2 -19 -16 -10 -26 31 -33 44 -9
72 -1 85 24 15 28 2 49 -36 56 -47 9 -54 25 -10 22 38 -2 55 7 40 21 -12 13
-56 21 -74 14z"/>
<path d="M2189 280 c0 -3 -1 -34 -1 -70 l0 -65 54 0 c46 0 53 2 53 20 0 16 -6
20 -32 17 l-33 -2 0 53 c0 46 -3 53 -20 53 -11 0 -20 -3 -21 -6z"/>
<path d="M2303 273 c-7 -18 6 -34 25 -31 13 3 15 -6 13 -48 -2 -49 -1 -51 23
-51 25 0 26 2 26 53 0 47 2 54 20 54 11 0 20 6 20 14 0 19 -120 27 -127 9z"/>
<path d="M1377 213 l1 -68 56 0 c47 0 56 3 56 18 0 13 -9 17 -41 17 -28 0 -39
4 -36 13 2 7 16 11 35 9 24 -3 32 0 32 13 0 13 -8 16 -32 13 -19 -2 -33 2 -35
10 -3 8 8 12 36 12 30 0 41 4 41 15 0 12 -13 15 -57 15 l-58 0 2 -67z"/>
<path d="M2442 210 l-3 -71 53 7 c63 9 82 25 82 71 0 45 -24 63 -83 63 l-46 0
-3 -70z m82 24 c21 -21 20 -31 -4 -44 -26 -14 -40 -5 -40 24 0 38 18 46 44 20z"/>
</g>
</svg>
